<?xml version="1.0" encoding="UTF-8" standalone="no"?>
<!-- Created with Inkscape (http://www.inkscape.org/) -->

<svg
   version="1.1"
   id="svg2"
   width="1587.4"
   height="1122.52"
   viewBox="0 0 1587.4 1122.52"
   xmlns="http://www.w3.org/2000/svg"
   xmlns:svg="http://www.w3.org/2000/svg">
  <defs
     id="defs6">
    <clipPath
       clipPathUnits="userSpaceOnUse"
       id="clipPath16">
      <path
         d="M 0.25,0 H 1190.549 V 841.807 H 0.25 Z"
         id="path14" />
    </clipPath>
  </defs>
  <g
     id="g8"
     transform="matrix(1.3333333,0,0,-1.3333333,0,1122.52)">
    <g
       id="g10">
      <g
         id="g12"
         clip-path="url(#clipPath16)">
        <g
           id="g18"
           transform="translate(912.4004,422.0508)">
          <path
             d="m 0,0 c 0,-154.274 -125.063,-279.339 -279.339,-279.339 -154.275,0 -279.339,125.065 -279.339,279.339 0,154.275 125.064,279.339 279.339,279.339 C -125.063,279.339 0,154.275 0,0"
             style="fill:#4ebd38;fill-opacity:1;fill-rule:nonzero;stroke:none"
             id="path20" />
        </g>
        <g
           id="g22"
           transform="translate(896.5781,422.0508)">
          <path
             d="m 0,0 c 0,-145.536 -117.98,-263.517 -263.517,-263.517 -145.536,0 -263.517,117.981 -263.517,263.517 0,145.536 117.981,263.517 263.517,263.517 C -117.98,263.517 0,145.536 0,0 Z"
             style="fill:none;stroke:#ffffff;stroke-width:2;stroke-linecap:butt;stroke-linejoin:miter;stroke-miterlimit:10;stroke-dasharray:11.998, 11.998;stroke-dashoffset:0;stroke-opacity:1"
             id="path24" />
        </g>
        <g
           id="g26"
           transform="translate(486.2261,538.3306)">
          <path
             d="m 0,0 c 35.305,0 50.402,-21.833 50.402,-46.918 0,-19.511 -9.291,-40.415 -33.214,-47.151 l 36.466,-62.713 H 23.227 l -35.769,60.622 h -40.88 c -2.555,0 -3.949,-1.161 -3.949,-3.948 v -56.674 h -27.407 v 62.016 c 0,17.653 7.432,24.853 24.62,24.853 H 0.929 c 15.562,0 21.833,10.684 21.833,21.833 0,11.149 -6.736,20.672 -21.833,20.672 h -85.94 V 0 Z"
             style="fill:#ffffff;fill-opacity:1;fill-rule:nonzero;stroke:none"
             id="path28" />
        </g>
        <g
           id="g30"
           transform="translate(592.8311,538.3306)">
          <path
             d="M 0,0 48.08,-57.835 98.482,0 h 33.912 l -67.126,-77.113 67.59,-79.669 H 99.411 L 47.384,-94.534 -6.039,-156.782 H -39.95 L 30.195,-75.023 -33.447,0 Z"
             style="fill:#e6eb08;fill-opacity:1;fill-rule:nonzero;stroke:none"
             id="path32" />
        </g>
        <g
           id="g34"
           transform="translate(773.8174,535.2715)">
          <path
             d="m 0,0 v -100.432 c 0,-14.803 7.288,-26.418 31.428,-26.418 h 59.667 v -26.873 H 29.834 c -40.766,0 -56.707,22.319 -56.707,53.063 l 0,100.66 z"
             style="fill:#ffffff;fill-opacity:1;fill-rule:nonzero;stroke:none"
             id="path36" />
        </g>
        <g
           id="g38"
           transform="translate(850.2402,313.9834)">
          <path
             d="m 0,0 h -436.693 c -6.508,0 -11.784,5.275 -11.784,11.783 v 22.128 c 0,6.508 5.276,11.783 11.784,11.783 H 0 c 6.508,0 11.782,-5.275 11.782,-11.783 V 11.783 C 11.782,5.275 6.508,0 0,0"
             style="fill:#ffffff;fill-opacity:1;fill-rule:nonzero;stroke:none"
             id="path40" />
        </g>
        <g
           id="g42"
           transform="translate(460.3193,346.9268)">
          <path
             d="m 0,0 v -4.029 h -7.348 c -1.857,0 -2.686,-0.868 -2.686,-2.687 v -14.141 h -4.188 v 14.773 c 0,4.188 1.541,6.084 5.65,6.084 z"
             style="fill:#1c4d25;fill-opacity:1;fill-rule:nonzero;stroke:none"
             id="path44" />
        </g>
        <g
           id="g46"
           transform="translate(476.4404,337.8018)">
          <path
             d="m 0,0 h 9.797 c 2.252,0 3.082,0.947 3.082,2.488 0,1.58 -0.909,2.608 -2.963,2.608 H 3.2 C 0.909,5.096 0,3.832 0,2.212 Z m 9.956,9.125 c 4.938,0 7.031,-2.37 7.031,-6.398 0,-3.832 -1.935,-6.006 -7.071,-6.006 H 0 V -4.78 c 0,-1.658 0.909,-2.884 3.2,-2.884 h 12.76 v -4.068 H 3.2 c -5.215,0 -7.269,2.922 -7.269,6.873 v 7.11 c 0,3.951 2.054,6.874 7.269,6.874 z"
             style="fill:#1c4d25;fill-opacity:1;fill-rule:nonzero;stroke:none"
             id="path48" />
        </g>
        <g
           id="g50"
           transform="translate(531.3169,346.9268)">
          <path
             d="M 0,0 C 7.071,0 10.548,-3.356 10.548,-9.125 V -20.857 H 6.321 v 11.732 c 0,3.278 -1.896,5.096 -6.281,5.096 h -4.899 v -16.828 h -4.227 v 16.828 h -10.587 c -0.356,0 -0.514,-0.198 -0.514,-0.593 v -16.235 h -4.188 v 17.618 c 0,2.449 0.83,3.239 2.924,3.239 z"
             style="fill:#1c4d25;fill-opacity:1;fill-rule:nonzero;stroke:none"
             id="path52" />
        </g>
        <g
           id="g54"
           transform="translate(559.7271,337.8018)">
          <path
             d="m 0,0 h 9.797 c 2.252,0 3.082,0.947 3.082,2.488 0,1.58 -0.909,2.608 -2.963,2.608 H 3.2 C 0.909,5.096 0,3.832 0,2.212 Z m 9.956,9.125 c 4.938,0 7.031,-2.37 7.031,-6.398 0,-3.832 -1.935,-6.006 -7.071,-6.006 H 0 V -4.78 c 0,-1.658 0.909,-2.884 3.2,-2.884 h 12.76 v -4.068 H 3.2 c -5.215,0 -7.269,2.922 -7.269,6.873 v 7.11 c 0,3.951 2.054,6.874 7.269,6.874 z"
             style="fill:#1c4d25;fill-opacity:1;fill-rule:nonzero;stroke:none"
             id="path56" />
        </g>
        <g
           id="g58"
           transform="translate(607.4932,335.1943)">
          <path
             d="m 0,0 v 7.703 h -8.81 c -3.595,0 -5.215,-1.896 -5.215,-6.399 0,-4.504 1.62,-6.361 5.215,-6.361 h 4.148 C -1.304,-5.057 0,-3.556 0,0 M 4.228,20.779 V -0.198 c 0,-6.004 -2.688,-8.928 -7.666,-8.928 h -5.767 c -5.57,0 -9.047,3.397 -9.047,10.43 0,7.031 3.477,10.428 9.047,10.428 H 0 v 9.047 z"
             style="fill:#1c4d25;fill-opacity:1;fill-rule:nonzero;stroke:none"
             id="path60" />
        </g>
        <g
           id="g62"
           transform="translate(647.8711,346.9268)">
          <path
             d="m 0,0 -12.563,-29.232 h -4.503 l 3.911,9.126 c -2.37,0 -3.2,0.75 -3.911,2.566 L -24.059,0 h 4.425 l 6.28,-15.525 c 0.278,-0.75 0.475,-0.87 1.265,-0.87 h 0.553 L -4.464,0 Z"
             style="fill:#1c4d25;fill-opacity:1;fill-rule:nonzero;stroke:none"
             id="path64" />
        </g>
        <g
           id="g66"
           transform="translate(682.5615,337.8018)">
          <path
             d="m 0,0 h 9.798 c 2.251,0 3.081,0.947 3.081,2.488 0,1.58 -0.909,2.608 -2.963,2.608 H 3.2 C 0.909,5.096 0,3.832 0,2.212 Z m 9.955,9.125 c 4.939,0 7.032,-2.37 7.032,-6.398 0,-3.832 -1.935,-6.006 -7.071,-6.006 H 0 V -4.78 c 0,-1.658 0.909,-2.884 3.2,-2.884 h 12.76 v -4.068 H 3.2 c -5.215,0 -7.269,2.922 -7.269,6.873 v 7.11 c 0,3.951 2.054,6.874 7.269,6.874 z"
             style="fill:#1c4d25;fill-opacity:1;fill-rule:nonzero;stroke:none"
             id="path68" />
        </g>
        <g
           id="g70"
           transform="translate(716.7773,346.9268)">
          <path
             d="M 0,0 6.913,-7.545 14.104,0 h 5.214 l -9.797,-10.39 9.916,-10.467 h -5.333 l -7.348,8.018 -7.507,-8.018 H -5.965 L 4.187,-9.994 -5.294,0 Z"
             style="fill:#1c4d25;fill-opacity:1;fill-rule:nonzero;stroke:none"
             id="path72" />
        </g>
        <g
           id="g74"
           transform="translate(766.0049,346.9268)">
          <path
             d="m 0,0 v -4.029 h -10.351 c -3.633,0 -5.213,-1.897 -5.213,-6.4 0,-4.504 1.58,-6.36 5.213,-6.36 H 0 v -4.068 h -10.745 c -5.57,0 -9.047,3.396 -9.047,10.428 0,7.033 3.477,10.429 9.047,10.429 z"
             style="fill:#1c4d25;fill-opacity:1;fill-rule:nonzero;stroke:none"
             id="path76" />
        </g>
        <g
           id="g78"
           transform="translate(782.9951,337.8018)">
          <path
             d="m 0,0 h 9.798 c 2.251,0 3.081,0.947 3.081,2.488 0,1.58 -0.909,2.608 -2.963,2.608 H 3.2 C 0.909,5.096 0,3.832 0,2.212 Z m 9.955,9.125 c 4.939,0 7.032,-2.37 7.032,-6.398 0,-3.832 -1.935,-6.006 -7.071,-6.006 H 0 V -4.78 c 0,-1.658 0.909,-2.884 3.2,-2.884 h 12.76 v -4.068 H 3.2 c -5.215,0 -7.269,2.922 -7.269,6.873 v 7.11 c 0,3.951 2.054,6.874 7.269,6.874 z"
             style="fill:#1c4d25;fill-opacity:1;fill-rule:nonzero;stroke:none"
             id="path80" />
        </g>
        <path
           d="m 817.684,326.068 h -4.187 v 29.904 h 4.187 z"
           style="fill:#1c4d25;fill-opacity:1;fill-rule:nonzero;stroke:none"
           id="path82" />
        <g
           id="g84"
           transform="translate(402.3257,370.7441)">
          <path
             d="M 0,0 H 459.135"
             style="fill:none;stroke:#ffffff;stroke-width:2;stroke-linecap:butt;stroke-linejoin:miter;stroke-miterlimit:10;stroke-dasharray:none;stroke-opacity:1"
             id="path86" />
        </g>
        <g
           id="g88"
           transform="translate(407.9146,542.1309)">
          <path
             d="m 0,0 h -26.09 l -24.468,-134.214 21.824,-98.205 9.82,-15.641 14.913,-0.363 4.001,-8.365 c 0,0 -20.539,77.613 -21.363,79.362 -0.824,1.748 2.449,101.772 2.449,101.772 z"
             style="fill:#4ebd38;fill-opacity:1;fill-rule:nonzero;stroke:none"
             id="path90" />
        </g>
        <g
           id="g92"
           transform="translate(385.3135,306.958)">
          <path
             d="m 0,0 h 73.589 c 0,0 120.981,-18.262 123.264,-19.783 2.283,-1.523 92.067,-17.5 92.067,-17.5 l 75.328,10.651 76.088,7.989 h 43.371 c 0,0 -47.175,-78.751 -92.828,-98.534 -45.652,-19.782 -83.605,-42.468 -149.025,-40.327 -65.421,2.141 -118.807,23.742 -118.807,23.742 0,0 -96.438,66.412 -101.959,94.196 C 15.568,-11.783 0,0 0,0"
             style="fill:#4ebd38;fill-opacity:1;fill-rule:nonzero;stroke:none"
             id="path94" />
        </g>
        <g
           id="g96"
           transform="translate(407.27,284.1494)">
          <path
             d="M 0,0 C -0.156,1.127 -0.029,2.166 0.377,3.115 0.783,4.064 1.465,4.833 2.422,5.422 L 4.207,2.521 C 3.527,2.018 3.109,1.372 2.954,0.587 c -0.156,-0.782 0.044,-1.626 0.6,-2.529 0.575,-0.935 1.251,-1.526 2.027,-1.769 0.776,-0.242 1.524,-0.143 2.242,0.298 0.558,0.344 0.913,0.787 1.065,1.327 0.151,0.54 0.174,1.112 0.068,1.713 C 8.85,0.229 8.646,1.024 8.343,2.02 7.967,3.272 7.72,4.328 7.601,5.182 7.482,6.037 7.587,6.896 7.917,7.752 8.248,8.61 8.931,9.359 9.969,9.998 c 0.957,0.588 1.941,0.865 2.951,0.832 1.011,-0.034 1.971,-0.361 2.881,-0.981 0.909,-0.62 1.709,-1.494 2.402,-2.619 0.984,-1.6 1.388,-3.159 1.211,-4.677 -0.178,-1.518 -0.935,-2.764 -2.271,-3.739 l -1.842,2.997 c 0.577,0.418 0.921,1.023 1.03,1.81 0.109,0.789 -0.1,1.61 -0.626,2.466 C 15.228,6.864 14.638,7.376 13.937,7.621 13.236,7.868 12.51,7.76 11.76,7.299 11.249,6.983 10.925,6.571 10.789,6.062 10.652,5.551 10.633,4.999 10.734,4.406 10.835,3.813 11.027,3.035 11.311,2.075 11.68,0.794 11.925,-0.283 12.046,-1.159 12.167,-2.035 12.061,-2.908 11.727,-3.78 11.394,-4.65 10.701,-5.41 9.648,-6.059 8.802,-6.579 7.865,-6.844 6.837,-6.854 5.81,-6.863 4.803,-6.575 3.816,-5.991 2.83,-5.406 1.977,-4.528 1.256,-3.354 0.573,-2.247 0.154,-1.129 0,0"
             style="fill:#ffffff;fill-opacity:1;fill-rule:nonzero;stroke:none"
             id="path98" />
        </g>
        <g
           id="g100"
           transform="translate(433.5649,263.5195)">
          <path
             d="M 0,0 C 0.359,0.817 0.485,1.634 0.377,2.448 0.269,3.263 -0.031,3.997 -0.522,4.652 -1.003,5.292 -1.624,5.774 -2.382,6.102 -3.143,6.424 -3.968,6.525 -4.859,6.403 -5.751,6.281 -6.625,5.897 -7.478,5.257 -8.333,4.616 -8.946,3.882 -9.321,3.054 -9.695,2.227 -9.832,1.402 -9.731,0.582 c 0.1,-0.82 0.391,-1.551 0.871,-2.189 0.491,-0.657 1.121,-1.143 1.888,-1.462 0.767,-0.321 1.604,-0.412 2.511,-0.28 0.906,0.135 1.787,0.523 2.641,1.163 C -0.966,-1.544 -0.359,-0.813 0,0 M -0.356,7.849 C 0.591,7.396 1.418,6.702 2.122,5.765 2.926,4.693 3.394,3.517 3.527,2.23 3.66,0.946 3.437,-0.31 2.858,-1.535 2.279,-2.761 1.368,-3.841 0.124,-4.773 -1.12,-5.708 -2.422,-6.29 -3.783,-6.521 c -1.361,-0.232 -2.648,-0.109 -3.859,0.366 -1.212,0.474 -2.22,1.247 -3.024,2.318 -0.704,0.938 -1.138,1.914 -1.304,2.93 -0.165,1.015 -0.136,1.969 0.087,2.856 l -7.686,-5.77 -1.91,2.546 18.271,13.717 1.91,-2.545 -1.82,-1.367 C -2.225,8.527 -1.305,8.3 -0.356,7.849"
             style="fill:#ffffff;fill-opacity:1;fill-rule:nonzero;stroke:none"
             id="path102" />
        </g>
        <g
           id="g104"
           transform="translate(447.7085,244.7803)">
          <path
             d="M 0,0 C 0.861,0.809 1.28,1.754 1.257,2.838 1.233,3.924 0.815,4.914 0.002,5.811 -0.736,6.622 -1.627,7.08 -2.673,7.187 -3.718,7.293 -4.735,6.997 -5.723,6.302 Z M 0.244,-4.114 -7.655,4.584 C -8.508,3.685 -8.937,2.68 -8.941,1.569 c -0.005,-1.11 0.394,-2.106 1.194,-2.986 1.15,-1.269 2.497,-1.68 4.041,-1.231 l 2.309,-2.54 c -1.368,-0.616 -2.797,-0.776 -4.289,-0.484 -1.493,0.29 -2.845,1.104 -4.058,2.442 -0.988,1.086 -1.628,2.285 -1.917,3.592 -0.29,1.308 -0.209,2.614 0.242,3.913 0.451,1.302 1.265,2.489 2.444,3.56 1.179,1.07 2.432,1.773 3.758,2.111 1.326,0.337 2.622,0.296 3.889,-0.124 C -0.06,9.402 1.081,8.635 2.093,7.52 3.069,6.445 3.702,5.273 3.994,4.005 4.285,2.736 4.218,1.48 3.79,0.238 3.362,-1.005 2.593,-2.13 1.484,-3.138 1.054,-3.528 0.64,-3.854 0.244,-4.114"
             style="fill:#ffffff;fill-opacity:1;fill-rule:nonzero;stroke:none"
             id="path106" />
        </g>
        <g
           id="g108"
           transform="translate(458.0303,238.2549)">
          <path
             d="m 0,0 c 1.291,0.453 2.576,0.536 3.854,0.25 1.28,-0.288 2.459,-0.929 3.541,-1.925 1.368,-1.261 2.198,-2.633 2.491,-4.113 0.293,-1.48 0.037,-2.972 -0.765,-4.473 l -2.524,2.326 c 0.315,0.753 0.394,1.498 0.235,2.23 C 6.671,-4.971 6.25,-4.29 5.565,-3.659 4.608,-2.776 3.531,-2.414 2.334,-2.572 1.139,-2.73 -0.024,-3.424 -1.155,-4.65 c -1.13,-1.226 -1.729,-2.446 -1.796,-3.658 -0.067,-1.212 0.378,-2.257 1.336,-3.141 1.355,-1.249 2.803,-1.476 4.345,-0.681 l 2.525,-2.327 c -1.396,-0.854 -2.859,-1.206 -4.391,-1.055 -1.531,0.15 -2.967,0.843 -4.308,2.078 -1.08,0.997 -1.813,2.123 -2.196,3.382 -0.384,1.259 -0.402,2.55 -0.055,3.872 0.347,1.326 1.06,2.573 2.139,3.743 1.08,1.17 2.265,1.983 3.556,2.437"
             style="fill:#ffffff;fill-opacity:1;fill-rule:nonzero;stroke:none"
             id="path110" />
        </g>
        <g
           id="g112"
           transform="translate(478.7036,228.2539)">
          <path
             d="M 0,0 C -0.059,0.552 0.093,1.054 0.457,1.507 0.819,1.96 1.277,2.219 1.828,2.282 2.378,2.344 2.879,2.195 3.33,1.834 3.765,1.485 4.013,1.035 4.071,0.483 4.13,-0.068 3.978,-0.57 3.615,-1.022 3.251,-1.477 2.795,-1.734 2.244,-1.797 1.693,-1.86 1.2,-1.717 0.764,-1.367 0.314,-1.007 0.059,-0.551 0,0 m 0.701,-3.946 -9.683,-12.084 -2.482,1.99 9.681,12.083 z"
             style="fill:#ffffff;fill-opacity:1;fill-rule:nonzero;stroke:none"
             id="path114" />
        </g>
        <g
           id="g116"
           transform="translate(492.9565,208.3242)">
          <path
             d="M 0,0 C 0.084,0.896 -0.047,1.714 -0.396,2.454 -0.747,3.194 -1.258,3.796 -1.933,4.26 -2.608,4.723 -3.351,4.988 -4.162,5.057 -4.973,5.124 -5.779,4.962 -6.579,4.568 -7.38,4.175 -8.082,3.538 -8.686,2.658 -9.291,1.777 -9.641,0.882 -9.737,-0.03 c -0.096,-0.911 0.032,-1.742 0.384,-2.496 0.352,-0.754 0.858,-1.357 1.518,-1.809 0.674,-0.463 1.42,-0.726 2.236,-0.787 0.816,-0.061 1.63,0.114 2.441,0.522 0.811,0.412 1.519,1.055 2.123,1.935 C -0.43,-1.784 -0.085,-0.896 0,0 M -8.246,7.367 C -7.038,7.992 -5.79,8.265 -4.5,8.188 -3.211,8.108 -2.015,7.69 -0.91,6.931 0.086,6.247 0.822,5.453 1.295,4.548 1.768,3.645 2.025,2.745 2.068,1.854 l 1.273,1.852 2.646,-1.817 -8.766,-12.765 -2.646,1.817 1.304,1.9 c -0.858,-0.297 -1.809,-0.383 -2.851,-0.258 -1.043,0.125 -2.055,0.524 -3.037,1.198 -1.089,0.748 -1.892,1.715 -2.41,2.9 -0.518,1.185 -0.694,2.465 -0.528,3.84 0.165,1.375 0.688,2.704 1.569,3.986 0.88,1.281 1.924,2.234 3.132,2.86"
             style="fill:#ffffff;fill-opacity:1;fill-rule:nonzero;stroke:none"
             id="path118" />
        </g>
        <g
           id="g120"
           transform="translate(512.3789,208.375)">
          <path
             d="m 0,0 -10.475,-17.967 -2.748,1.603 10.474,17.968 z"
             style="fill:#ffffff;fill-opacity:1;fill-rule:nonzero;stroke:none"
             id="path122" />
        </g>
        <g
           id="g124"
           transform="translate(519.3369,201.5137)">
          <path
             d="M 0,0 C -0.167,0.529 -0.117,1.051 0.149,1.566 0.416,2.083 0.813,2.427 1.341,2.597 1.869,2.768 2.389,2.72 2.901,2.455 3.397,2.199 3.729,1.807 3.895,1.277 4.062,0.749 4.012,0.228 3.745,-0.29 3.479,-0.807 3.082,-1.147 2.554,-1.318 2.026,-1.49 1.515,-1.446 1.019,-1.189 0.506,-0.927 0.167,-0.529 0,0 m 1.466,-3.729 -7.105,-13.76 -2.827,1.46 7.105,13.758 z"
             style="fill:#ffffff;fill-opacity:1;fill-rule:nonzero;stroke:none"
             id="path126" />
        </g>
        <g
           id="g128"
           transform="translate(525.332,178.8965)">
          <path
             d="m 0,0 c -0.703,0.785 -1.159,1.638 -1.368,2.556 -0.21,0.92 -0.144,1.814 0.195,2.688 L 1.847,3.932 C 1.637,3.307 1.704,2.681 2.049,2.05 2.394,1.42 2.958,0.936 3.744,0.593 4.562,0.236 5.267,0.119 5.857,0.241 6.447,0.361 6.851,0.672 7.068,1.169 7.299,1.701 7.22,2.206 6.829,2.686 6.437,3.16 5.763,3.791 4.806,4.575 3.874,5.327 3.136,5.985 2.59,6.55 2.045,7.114 1.652,7.785 1.413,8.563 c -0.24,0.78 -0.158,1.632 0.245,2.56 0.329,0.756 0.851,1.353 1.568,1.785 0.716,0.435 1.567,0.653 2.551,0.654 0.984,0.001 2.015,-0.234 3.089,-0.701 1.604,-0.698 2.719,-1.668 3.345,-2.911 0.626,-1.244 0.667,-2.583 0.122,-4.022 L 9.416,7.197 C 9.641,7.854 9.606,8.474 9.31,9.052 9.013,9.63 8.473,10.09 7.688,10.431 6.92,10.766 6.268,10.875 5.731,10.761 5.195,10.647 4.822,10.351 4.613,9.869 4.448,9.49 4.446,9.114 4.607,8.737 4.769,8.36 5.013,8.014 5.342,7.696 5.671,7.38 6.171,6.943 6.841,6.387 7.746,5.665 8.464,5.021 8.998,4.452 9.531,3.883 9.917,3.22 10.156,2.463 10.394,1.704 10.324,0.867 9.945,-0.051 9.594,-0.859 9.058,-1.484 8.339,-1.927 7.618,-2.37 6.774,-2.595 5.807,-2.603 4.84,-2.611 3.81,-2.379 2.718,-1.903 1.609,-1.42 0.703,-0.787 0,0"
             style="fill:#ffffff;fill-opacity:1;fill-rule:nonzero;stroke:none"
             id="path130" />
        </g>
        <g
           id="g132"
           transform="translate(550.4155,182.3379)">
          <path
             d="m 0,0 -2.838,-8.088 c -0.192,-0.549 -0.203,-0.986 -0.032,-1.314 0.17,-0.327 0.563,-0.6 1.178,-0.816 l 1.843,-0.646 -0.884,-2.52 -2.37,0.832 c -1.352,0.474 -2.276,1.156 -2.772,2.045 -0.497,0.889 -0.494,2.05 0.009,3.484 L -3.028,1.062 -4.739,1.664 -3.874,4.13 -2.163,3.529 -0.888,7.161 2.141,6.101 0.866,2.467 4.395,1.229 3.529,-1.238 Z"
             style="fill:#ffffff;fill-opacity:1;fill-rule:nonzero;stroke:none"
             id="path134" />
        </g>
        <g
           id="g136"
           transform="translate(560.8384,165.9697)">
          <path
             d="m 0,0 c -0.81,0.676 -1.385,1.453 -1.725,2.331 -0.34,0.879 -0.406,1.774 -0.198,2.69 L 1.256,4.159 C 1.139,3.511 1.295,2.9 1.729,2.327 2.162,1.755 2.791,1.356 3.617,1.132 4.479,0.899 5.193,0.885 5.759,1.092 6.327,1.297 6.68,1.662 6.823,2.188 6.974,2.746 6.822,3.234 6.366,3.649 5.909,4.063 5.15,4.59 4.089,5.227 3.059,5.835 2.233,6.38 1.611,6.857 0.989,7.338 0.502,7.943 0.152,8.68 c -0.35,0.734 -0.393,1.591 -0.128,2.567 0.215,0.796 0.645,1.46 1.291,1.995 0.645,0.533 1.456,0.872 2.429,1.016 0.974,0.143 2.027,0.062 3.158,-0.242 1.688,-0.458 2.932,-1.257 3.733,-2.396 0.8,-1.138 1.034,-2.458 0.705,-3.961 L 8.269,8.49 C 8.396,9.174 8.272,9.78 7.894,10.312 7.518,10.839 6.916,11.215 6.089,11.439 5.281,11.658 4.62,11.672 4.106,11.481 3.592,11.29 3.266,10.941 3.129,10.437 3.021,10.038 3.074,9.664 3.288,9.315 3.501,8.966 3.794,8.659 4.167,8.396 4.538,8.127 5.096,7.77 5.84,7.314 6.839,6.733 7.645,6.2 8.255,5.714 8.866,5.229 9.344,4.628 9.69,3.913 10.036,3.198 10.088,2.359 9.847,1.396 9.617,0.547 9.178,-0.148 8.53,-0.692 7.881,-1.234 7.08,-1.581 6.124,-1.729 5.168,-1.879 4.115,-1.797 2.966,-1.487 1.798,-1.17 0.81,-0.674 0,0"
             style="fill:#ffffff;fill-opacity:1;fill-rule:nonzero;stroke:none"
             id="path138" />
        </g>
        <g
           id="g140"
           transform="translate(594.8877,176.6846)">
          <path
             d="M 0,0 C -0.33,0.446 -0.452,0.956 -0.368,1.53 -0.283,2.104 -0.02,2.561 0.424,2.893 0.868,3.226 1.376,3.348 1.946,3.266 2.498,3.186 2.938,2.921 3.269,2.476 3.599,2.028 3.721,1.519 3.636,0.943 3.552,0.368 3.288,-0.085 2.844,-0.418 2.4,-0.75 1.903,-0.876 1.35,-0.794 0.779,-0.711 0.33,-0.446 0,0 m 2.599,-3.052 -2.248,-15.32 -3.148,0.461 2.248,15.321 z"
             style="fill:#ffffff;fill-opacity:1;fill-rule:nonzero;stroke:none"
             id="path142" />
        </g>
        <g
           id="g144"
           transform="translate(617.6895,171.125)">
          <path
             d="m 0,0 c 0.92,-0.573 1.612,-1.376 2.079,-2.404 0.467,-1.031 0.65,-2.244 0.548,-3.647 l -0.658,-9.11 -3.145,0.227 0.623,8.634 c 0.101,1.382 -0.167,2.468 -0.8,3.255 -0.633,0.788 -1.543,1.226 -2.731,1.311 -1.187,0.087 -2.156,-0.216 -2.905,-0.904 -0.75,-0.687 -1.174,-1.722 -1.274,-3.105 l -0.624,-8.633 -3.173,0.229 1.116,15.444 3.173,-0.23 -0.127,-1.765 c 0.565,0.597 1.264,1.045 2.097,1.343 0.833,0.295 1.703,0.412 2.613,0.345 C -1.98,0.903 -0.919,0.572 0,0"
             style="fill:#ffffff;fill-opacity:1;fill-rule:nonzero;stroke:none"
             id="path146" />
        </g>
        <g
           id="g148"
           transform="translate(657.5537,176.6377)">
          <path
             d="m 0,0 1.492,-19.476 -3.172,-0.243 -0.653,8.519 -9.1,-0.696 0.654,-8.519 -3.172,-0.243 -1.492,19.473 3.172,0.246 0.639,-8.352 9.1,0.697 -0.641,8.35 z"
             style="fill:#ffffff;fill-opacity:1;fill-rule:nonzero;stroke:none"
             id="path150" />
        </g>
        <g
           id="g152"
           transform="translate(677.9619,163.1406)">
          <path
             d="M 0,0 C 0.638,0.51 1.109,1.191 1.415,2.043 1.72,2.895 1.776,3.874 1.584,4.981 1.391,6.089 1.018,6.989 0.463,7.684 -0.092,8.374 -0.752,8.854 -1.516,9.121 -2.279,9.388 -3.064,9.451 -3.871,9.312 -4.678,9.169 -5.391,8.847 -6.011,8.34 -6.631,7.833 -7.076,7.16 -7.346,6.325 -7.616,5.488 -7.654,4.518 -7.462,3.409 -7.177,1.767 -6.539,0.57 -5.549,-0.181 -4.562,-0.932 -3.433,-1.196 -2.167,-0.977 -1.361,-0.836 -0.639,-0.511 0,0 m -5.738,-3.409 c -1.27,0.455 -2.337,1.221 -3.204,2.297 -0.868,1.076 -1.437,2.397 -1.71,3.966 -0.269,1.551 -0.169,2.985 0.299,4.303 0.471,1.319 1.237,2.402 2.297,3.251 1.061,0.851 2.316,1.403 3.763,1.654 1.448,0.251 2.815,0.156 4.101,-0.287 C 1.093,11.333 2.18,10.571 3.066,9.489 3.953,8.407 4.531,7.091 4.801,5.54 5.07,3.989 4.961,2.555 4.473,1.233 3.984,-0.088 3.197,-1.181 2.111,-2.045 1.024,-2.907 -0.243,-3.466 -1.691,-3.717 -3.121,-3.966 -4.47,-3.862 -5.738,-3.409"
             style="fill:#ffffff;fill-opacity:1;fill-rule:nonzero;stroke:none"
             id="path154" />
        </g>
        <g
           id="g156"
           transform="translate(710.5791,183.6328)">
          <path
             d="m 0,0 c 1.062,-0.213 1.998,-0.718 2.807,-1.515 0.807,-0.796 1.412,-1.867 1.811,-3.214 l 2.596,-8.757 -3.024,-0.897 -2.461,8.3 c -0.392,1.329 -1.025,2.251 -1.895,2.765 -0.87,0.513 -1.877,0.601 -3.019,0.262 -1.14,-0.338 -1.941,-0.962 -2.399,-1.869 -0.459,-0.907 -0.491,-2.026 -0.097,-3.355 l 2.459,-8.299 -3.023,-0.897 -2.46,8.299 c -0.394,1.328 -1.026,2.25 -1.898,2.765 -0.869,0.515 -1.876,0.601 -3.017,0.265 -1.142,-0.34 -1.942,-0.963 -2.401,-1.872 -0.458,-0.908 -0.49,-2.026 -0.095,-3.355 l 2.46,-8.3 -3.051,-0.903 -4.401,14.848 3.05,0.903 0.503,-1.698 c 0.319,0.759 0.811,1.423 1.477,1.992 0.665,0.568 1.435,0.982 2.31,1.241 1.177,0.35 2.304,0.409 3.381,0.182 1.075,-0.228 2.005,-0.745 2.787,-1.548 0.18,1.03 0.663,1.95 1.453,2.761 0.788,0.809 1.726,1.376 2.814,1.699 C -2.174,0.146 -1.062,0.212 0,0"
             style="fill:#ffffff;fill-opacity:1;fill-rule:nonzero;stroke:none"
             id="path158" />
        </g>
        <g
           id="g160"
           transform="translate(734.9453,180.5684)">
          <path
             d="M 0,0 C 0.503,0.645 0.805,1.416 0.905,2.315 1.006,3.214 0.834,4.18 0.391,5.212 -0.052,6.246 -0.624,7.036 -1.323,7.582 -2.023,8.127 -2.775,8.441 -3.58,8.524 -4.386,8.606 -5.164,8.488 -5.916,8.165 -6.669,7.842 -7.287,7.362 -7.773,6.727 -8.26,6.089 -8.538,5.332 -8.607,4.457 -8.678,3.58 -8.49,2.627 -8.048,1.594 c 0.658,-1.532 1.554,-2.549 2.691,-3.052 1.136,-0.501 2.294,-0.497 3.474,0.007 C -1.131,-1.128 -0.503,-0.644 0,0 m -4.796,-4.642 c -1.34,0.15 -2.556,0.649 -3.647,1.496 -1.092,0.845 -1.952,2 -2.579,3.463 -0.621,1.447 -0.855,2.867 -0.703,4.256 0.153,1.39 0.648,2.621 1.484,3.695 0.835,1.07 1.928,1.895 3.279,2.475 1.351,0.579 2.703,0.803 4.056,0.67 C -1.554,11.279 -0.32,10.789 0.792,9.942 1.905,9.093 2.771,7.946 3.392,6.501 4.013,5.053 4.237,3.632 4.067,2.234 3.898,0.836 3.384,-0.409 2.526,-1.501 1.669,-2.592 0.564,-3.428 -0.786,-4.007 -2.12,-4.579 -3.457,-4.791 -4.796,-4.642"
             style="fill:#ffffff;fill-opacity:1;fill-rule:nonzero;stroke:none"
             id="path162" />
        </g>
        <g
           id="g164"
           transform="translate(755.2051,197.4102)">
          <path
             d="M 0,0 C -0.58,1.027 -1.4,1.659 -2.46,1.894 -3.52,2.127 -4.58,1.954 -5.642,1.378 -6.606,0.854 -7.264,0.095 -7.614,-0.896 -7.965,-1.886 -7.919,-2.944 -7.477,-4.069 Z M 4.055,-0.737 -6.266,-6.353 c 0.673,-1.042 1.548,-1.697 2.625,-1.962 1.078,-0.268 2.139,-0.118 3.185,0.452 1.504,0.818 2.222,2.03 2.153,3.634 l 3.015,1.641 c 0.272,-1.473 0.091,-2.9 -0.546,-4.28 -0.637,-1.381 -1.747,-2.502 -3.332,-3.364 -1.291,-0.704 -2.607,-1.04 -3.946,-1.012 -1.339,0.028 -2.588,0.415 -3.745,1.161 -1.159,0.746 -2.118,1.818 -2.878,3.219 -0.762,1.397 -1.15,2.781 -1.162,4.149 -0.015,1.368 0.333,2.618 1.041,3.75 0.707,1.132 1.723,2.059 3.047,2.778 1.275,0.694 2.563,1.032 3.864,1.015 1.3,-0.016 2.506,-0.38 3.612,-1.091 C 1.771,3.027 2.685,2.015 3.401,0.698 3.679,0.188 3.896,-0.29 4.055,-0.737"
             style="fill:#ffffff;fill-opacity:1;fill-rule:nonzero;stroke:none"
             id="path166" />
        </g>
        <g
           id="g168"
           transform="translate(776.4404,203.5977)">
          <path
             d="M 0,0 C 0.376,0.726 0.529,1.539 0.462,2.441 0.395,3.343 0.048,4.262 -0.579,5.194 -1.205,6.128 -1.913,6.798 -2.7,7.205 -3.489,7.613 -4.287,7.782 -5.093,7.716 -5.899,7.649 -6.643,7.387 -7.322,6.933 -8.003,6.476 -8.522,5.89 -8.883,5.174 -9.242,4.459 -9.376,3.663 -9.283,2.79 -9.189,1.916 -8.83,1.014 -8.204,0.079 c 0.93,-1.385 1.998,-2.219 3.208,-2.501 1.209,-0.283 2.347,-0.066 3.413,0.65 C -0.903,-1.317 -0.376,-0.728 0,0 m -3.856,-5.448 c -1.345,-0.101 -2.632,0.164 -3.861,0.795 -1.229,0.632 -2.288,1.607 -3.176,2.929 -0.876,1.307 -1.368,2.659 -1.474,4.052 -0.108,1.395 0.151,2.695 0.774,3.905 0.623,1.207 1.546,2.221 2.767,3.039 1.221,0.819 2.508,1.289 3.862,1.408 1.355,0.118 2.656,-0.136 3.906,-0.765 C 0.192,9.288 1.256,8.321 2.133,7.013 3.009,5.706 3.493,4.352 3.585,2.945 3.677,1.54 3.401,0.222 2.76,-1.009 2.118,-2.241 1.187,-3.265 -0.033,-4.084 c -1.205,-0.81 -2.48,-1.264 -3.823,-1.364"
             style="fill:#ffffff;fill-opacity:1;fill-rule:nonzero;stroke:none"
             id="path170" />
        </g>
        <g
           id="g172"
           transform="translate(793.1816,225.707)">
          <path
             d="M 0,0 C -0.83,0.324 -1.65,0.415 -2.46,0.272 -3.271,0.131 -3.99,-0.2 -4.624,-0.719 c -0.618,-0.508 -1.074,-1.148 -1.367,-1.92 -0.293,-0.773 -0.361,-1.602 -0.198,-2.488 0.16,-0.887 0.579,-1.741 1.255,-2.566 0.677,-0.828 1.437,-1.411 2.28,-1.747 0.842,-0.341 1.672,-0.443 2.487,-0.307 0.814,0.137 1.532,0.456 2.151,0.964 0.633,0.518 1.093,1.168 1.38,1.948 0.286,0.779 0.345,1.619 0.172,2.522 C 3.364,-3.415 2.938,-2.552 2.262,-1.726 1.586,-0.898 0.832,-0.324 0,0 m -7.824,-0.687 c 0.411,0.964 1.07,1.819 1.976,2.563 1.036,0.85 2.194,1.366 3.471,1.556 C -1.1,3.616 0.165,3.446 1.414,2.921 2.664,2.394 3.78,1.529 4.767,0.326 5.752,-0.876 6.389,-2.153 6.678,-3.503 6.966,-4.854 6.897,-6.144 6.476,-7.373 6.053,-8.604 5.323,-9.644 4.287,-10.493 3.381,-11.237 2.424,-11.712 1.416,-11.92 c -1.009,-0.208 -1.961,-0.221 -2.858,-0.035 l 6.09,-7.435 -2.46,-2.015 -14.481,17.674 2.461,2.015 1.443,-1.761 c -0.035,0.892 0.155,1.822 0.565,2.79"
             style="fill:#ffffff;fill-opacity:1;fill-rule:nonzero;stroke:none"
             id="path174" />
        </g>
        <g
           id="g176"
           transform="translate(810.3545,241.7031)">
          <path
             d="m 0,0 c -0.865,0.248 -1.693,0.27 -2.485,0.062 -0.792,-0.208 -1.478,-0.6 -2.058,-1.177 -0.58,-0.577 -0.978,-1.259 -1.194,-2.044 -0.217,-0.784 -0.205,-1.607 0.033,-2.465 0.24,-0.858 0.736,-1.667 1.49,-2.424 0.754,-0.757 1.568,-1.265 2.448,-1.528 0.878,-0.263 1.72,-0.29 2.525,-0.083 0.804,0.207 1.491,0.595 2.057,1.158 0.58,0.577 0.975,1.262 1.185,2.053 0.211,0.791 0.189,1.623 -0.063,2.496 C 3.686,-3.081 3.183,-2.266 2.429,-1.509 1.675,-0.752 0.865,-0.25 0,0 m -8.761,-6.747 c -0.391,1.304 -0.429,2.579 -0.115,3.833 0.314,1.252 0.946,2.352 1.895,3.296 0.857,0.853 1.773,1.43 2.75,1.728 0.976,0.299 1.907,0.386 2.792,0.263 L -3.026,3.966 -0.753,6.23 10.177,-4.738 7.903,-7.003 6.276,-5.372 C 6.41,-6.269 6.319,-7.22 6.005,-8.222 5.688,-9.223 5.11,-10.144 4.267,-10.982 3.33,-11.917 2.232,-12.528 0.973,-12.817 c -1.261,-0.291 -2.551,-0.229 -3.872,0.188 -1.321,0.415 -2.531,1.175 -3.628,2.276 -1.098,1.101 -1.842,2.303 -2.234,3.606"
             style="fill:#ffffff;fill-opacity:1;fill-rule:nonzero;stroke:none"
             id="path178" />
        </g>
        <g
           id="g180"
           transform="translate(820.2246,256.0254)">
          <path
             d="m 0,0 6.515,-5.571 c 0.44,-0.377 0.845,-0.545 1.213,-0.504 0.368,0.04 0.762,0.307 1.186,0.804 l 1.27,1.483 2.029,-1.734 -1.633,-1.909 C 9.649,-8.521 8.68,-9.137 7.671,-9.276 6.663,-9.418 5.582,-8.996 4.429,-8.011 l -6.515,5.573 -1.179,-1.381 -1.987,1.699 1.18,1.38 L -6.999,1.761 -4.913,4.2 -1.986,1.698 0.443,4.541 2.43,2.842 Z"
             style="fill:#ffffff;fill-opacity:1;fill-rule:nonzero;stroke:none"
             id="path182" />
        </g>
        <g
           id="g184"
           transform="translate(832.6943,275.5137)">
          <path
             d="M 0,0 C 0.951,0.446 1.983,0.592 3.1,0.437 4.214,0.279 5.339,-0.212 6.476,-1.039 l 7.382,-5.377 -1.856,-2.549 -6.997,5.095 c -1.121,0.816 -2.184,1.165 -3.187,1.044 -1.004,-0.122 -1.856,-0.664 -2.556,-1.626 -0.701,-0.963 -0.958,-1.944 -0.771,-2.944 0.189,-1 0.842,-1.906 1.963,-2.723 l 6.996,-5.095 -1.872,-2.572 -16.811,12.242 1.873,2.572 5.748,-4.185 c -0.213,0.822 -0.219,1.672 -0.02,2.552 0.199,0.877 0.59,1.715 1.17,2.513 C -1.772,-1.145 -0.951,-0.447 0,0"
             style="fill:#ffffff;fill-opacity:1;fill-rule:nonzero;stroke:none"
             id="path186" />
        </g>
        <g
           id="g188"
           transform="translate(880.4912,533.5117)">
          <path
             d="m 0,0 h -26.09 l 18.913,-75.654 c 0,0 3.275,-100.025 2.45,-101.772 -0.824,-1.749 -21.363,-79.362 -21.363,-79.362 l 4.001,8.365 14.912,0.363 9.822,15.641 25.032,112.644 z"
             style="fill:#4ebd38;fill-opacity:1;fill-rule:nonzero;stroke:none"
             id="path190" />
        </g>
        <g
           id="g192"
           transform="translate(846.1719,297.7637)">
          <path
             d="m 0,0 14.678,-19.793 -1.694,-2.825 -4.853,6.554 -16.179,2.633 1.822,3.04 12.348,-2.356 -7.814,9.921 z"
             style="fill:#ffffff;fill-opacity:1;fill-rule:nonzero;stroke:none"
             id="path194" />
        </g>
      </g>
    </g>
  </g>
</svg>
