<?xml version="1.0" encoding="UTF-8"?>
<svg xmlns="http://www.w3.org/2000/svg" xmlns:xlink="http://www.w3.org/1999/xlink" width="1788px" height="1265px" viewBox="0 0 1787 1265" version="1.1">
<g id="surface1">
<path style=" stroke:none;fill-rule:nonzero;fill:rgb(30.588236%,74.117649%,21.960784%);fill-opacity:1;" d="M 1369.847656 630.570312 C 1369.847656 862.277344 1182.082031 1050.117188 950.457031 1050.117188 C 718.832031 1050.117188 531.066406 862.277344 531.066406 630.570312 C 531.066406 398.859375 718.832031 211.019531 950.457031 211.019531 C 1182.082031 211.019531 1369.847656 398.859375 1369.847656 630.570312 "/>
<path style="fill:none;stroke-width:2;stroke-linecap:butt;stroke-linejoin:miter;stroke:rgb(100%,100%,100%);stroke-opacity:1;stroke-dasharray:11.998,11.998;stroke-miterlimit:10;" d="M -0.000882683 -0.000966195 C -0.000882683 -145.535138 -117.979446 -263.516205 -263.516262 -263.516205 C -409.053078 -263.516205 -527.034243 -145.535138 -527.034243 -0.000966195 C -527.034243 145.535806 -409.053078 263.516874 -263.516262 263.516874 C -117.979446 263.516874 -0.000882683 145.535806 -0.000882683 -0.000966195 Z M -0.000882683 -0.000966195 " transform="matrix(1.501365,0,0,-1.501929,1346.091169,630.568861)"/>
<path style=" stroke:none;fill-rule:nonzero;fill:rgb(100%,100%,100%);fill-opacity:1;" d="M 730.003906 455.925781 C 783.007812 455.925781 805.675781 488.714844 805.675781 526.390625 C 805.675781 555.695312 791.726562 587.09375 755.808594 597.210938 L 810.558594 691.398438 L 764.875 691.398438 L 711.171875 600.351562 L 649.796875 600.351562 C 645.960938 600.351562 643.867188 602.09375 643.867188 606.28125 L 643.867188 691.398438 L 602.71875 691.398438 L 602.71875 598.257812 C 602.71875 571.742188 613.878906 560.929688 639.683594 560.929688 L 731.398438 560.929688 C 754.761719 560.929688 764.175781 544.882812 764.175781 528.136719 C 764.175781 511.390625 754.0625 497.089844 731.398438 497.089844 L 602.371094 497.089844 L 602.371094 455.925781 Z M 730.003906 455.925781 "/>
<path style=" stroke:none;fill-rule:nonzero;fill:rgb(90.196079%,92.156863%,3.137255%);fill-opacity:1;" d="M 890.054688 455.925781 L 962.242188 542.789062 L 1037.914062 455.925781 L 1088.828125 455.925781 L 988.046875 571.742188 L 1089.523438 691.398438 L 1039.308594 691.398438 L 961.195312 597.90625 L 880.988281 691.398438 L 830.078125 691.398438 L 935.390625 568.605469 L 839.839844 455.925781 Z M 890.054688 455.925781 "/>
<path style=" stroke:none;fill-rule:nonzero;fill:rgb(100%,100%,100%);fill-opacity:1;" d="M 1161.78125 460.519531 L 1161.78125 611.359375 C 1161.78125 633.59375 1172.722656 651.039062 1208.96875 651.039062 L 1298.550781 651.039062 L 1298.550781 691.402344 L 1206.574219 691.402344 C 1145.371094 691.402344 1121.4375 657.878906 1121.4375 611.703125 L 1121.4375 460.519531 Z M 1161.78125 460.519531 "/>
<path style=" stroke:none;fill-rule:nonzero;fill:rgb(100%,100%,100%);fill-opacity:1;" d="M 1276.519531 792.878906 L 620.886719 792.878906 C 611.113281 792.878906 603.191406 784.957031 603.191406 775.179688 L 603.191406 741.945312 C 603.191406 732.171875 611.113281 724.25 620.886719 724.25 L 1276.519531 724.25 C 1286.292969 724.25 1294.210938 732.171875 1294.210938 741.945312 L 1294.210938 775.179688 C 1294.210938 784.957031 1286.292969 792.878906 1276.519531 792.878906 "/>
<path style=" stroke:none;fill-rule:nonzero;fill:rgb(10.980392%,30.19608%,14.509805%);fill-opacity:1;" d="M 691.105469 743.398438 L 691.105469 749.449219 L 680.074219 749.449219 C 677.289062 749.449219 676.042969 750.753906 676.042969 753.488281 L 676.042969 774.726562 L 669.753906 774.726562 L 669.753906 752.539062 C 669.753906 746.246094 672.070312 743.398438 678.238281 743.398438 Z M 691.105469 743.398438 "/>
<path style=" stroke:none;fill-rule:nonzero;fill:rgb(10.980392%,30.19608%,14.509805%);fill-opacity:1;" d="M 715.3125 757.105469 L 730.019531 757.105469 C 733.402344 757.105469 734.648438 755.683594 734.648438 753.367188 C 734.648438 750.996094 733.28125 749.449219 730.199219 749.449219 L 720.117188 749.449219 C 716.675781 749.449219 715.3125 751.347656 715.3125 753.78125 Z M 730.257812 743.398438 C 737.671875 743.398438 740.816406 746.960938 740.816406 753.007812 C 740.816406 758.765625 737.910156 762.03125 730.199219 762.03125 L 715.3125 762.03125 L 715.3125 764.285156 C 715.3125 766.773438 716.675781 768.617188 720.117188 768.617188 L 739.273438 768.617188 L 739.273438 774.726562 L 720.117188 774.726562 C 712.285156 774.726562 709.203125 770.335938 709.203125 764.402344 L 709.203125 753.722656 C 709.203125 747.789062 712.285156 743.398438 720.117188 743.398438 Z M 730.257812 743.398438 "/>
<path style=" stroke:none;fill-rule:nonzero;fill:rgb(10.980392%,30.19608%,14.509805%);fill-opacity:1;" d="M 797.699219 743.398438 C 808.316406 743.398438 813.535156 748.441406 813.535156 757.105469 L 813.535156 774.726562 L 807.191406 774.726562 L 807.191406 757.105469 C 807.191406 752.179688 804.34375 749.449219 797.761719 749.449219 L 790.40625 749.449219 L 790.40625 774.726562 L 784.058594 774.726562 L 784.058594 749.449219 L 768.164062 749.449219 C 767.628906 749.449219 767.394531 749.75 767.394531 750.339844 L 767.394531 774.726562 L 761.105469 774.726562 L 761.105469 748.265625 C 761.105469 744.585938 762.351562 743.398438 765.496094 743.398438 Z M 797.699219 743.398438 "/>
<path style=" stroke:none;fill-rule:nonzero;fill:rgb(10.980392%,30.19608%,14.509805%);fill-opacity:1;" d="M 840.355469 757.105469 L 855.0625 757.105469 C 858.445312 757.105469 859.691406 755.683594 859.691406 753.367188 C 859.691406 750.996094 858.324219 749.449219 855.242188 749.449219 L 845.160156 749.449219 C 841.71875 749.449219 840.355469 751.347656 840.355469 753.78125 Z M 855.300781 743.398438 C 862.714844 743.398438 865.859375 746.960938 865.859375 753.007812 C 865.859375 758.765625 862.953125 762.03125 855.242188 762.03125 L 840.355469 762.03125 L 840.355469 764.285156 C 840.355469 766.773438 841.71875 768.617188 845.160156 768.617188 L 864.316406 768.617188 L 864.316406 774.726562 L 845.160156 774.726562 C 837.328125 774.726562 834.246094 770.335938 834.246094 764.402344 L 834.246094 753.722656 C 834.246094 747.789062 837.328125 743.398438 845.160156 743.398438 Z M 855.300781 743.398438 "/>
<path style=" stroke:none;fill-rule:nonzero;fill:rgb(10.980392%,30.19608%,14.509805%);fill-opacity:1;" d="M 912.070312 761.019531 L 912.070312 749.453125 L 898.84375 749.453125 C 893.445312 749.453125 891.011719 752.300781 891.011719 759.0625 C 891.011719 765.828125 893.445312 768.617188 898.84375 768.617188 L 905.070312 768.617188 C 910.113281 768.617188 912.070312 766.363281 912.070312 761.019531 M 918.417969 729.8125 L 918.417969 761.320312 C 918.417969 770.335938 914.382812 774.726562 906.90625 774.726562 L 898.25 774.726562 C 889.886719 774.726562 884.667969 769.625 884.667969 759.0625 C 884.667969 748.503906 889.886719 743.402344 898.25 743.402344 L 912.070312 743.402344 L 912.070312 729.8125 Z M 918.417969 729.8125 "/>
<path style=" stroke:none;fill-rule:nonzero;fill:rgb(10.980392%,30.19608%,14.509805%);fill-opacity:1;" d="M 972.691406 743.398438 L 953.828125 787.304688 L 947.070312 787.304688 L 952.941406 773.597656 C 949.382812 773.597656 948.136719 772.472656 947.070312 769.742188 L 936.570312 743.398438 L 943.214844 743.398438 L 952.640625 766.71875 C 953.058594 767.84375 953.355469 768.023438 954.542969 768.023438 L 955.371094 768.023438 L 965.988281 743.398438 Z M 972.691406 743.398438 "/>
<path style=" stroke:none;fill-rule:nonzero;fill:rgb(10.980392%,30.19608%,14.509805%);fill-opacity:1;" d="M 1024.773438 757.105469 L 1039.484375 757.105469 C 1042.863281 757.105469 1044.109375 755.683594 1044.109375 753.367188 C 1044.109375 750.996094 1042.746094 749.449219 1039.660156 749.449219 L 1029.578125 749.449219 C 1026.140625 749.449219 1024.773438 751.347656 1024.773438 753.78125 Z M 1039.71875 743.398438 C 1047.136719 743.398438 1050.277344 746.960938 1050.277344 753.007812 C 1050.277344 758.765625 1047.371094 762.03125 1039.660156 762.03125 L 1024.773438 762.03125 L 1024.773438 764.285156 C 1024.773438 766.773438 1026.140625 768.617188 1029.578125 768.617188 L 1048.734375 768.617188 L 1048.734375 774.726562 L 1029.578125 774.726562 C 1021.75 774.726562 1018.664062 770.335938 1018.664062 764.402344 L 1018.664062 753.722656 C 1018.664062 747.789062 1021.75 743.398438 1029.578125 743.398438 Z M 1039.71875 743.398438 "/>
<path style=" stroke:none;fill-rule:nonzero;fill:rgb(10.980392%,30.19608%,14.509805%);fill-opacity:1;" d="M 1076.144531 743.398438 L 1086.523438 754.730469 L 1097.320312 743.398438 L 1105.148438 743.398438 L 1090.4375 759.003906 L 1105.328125 774.726562 L 1097.320312 774.726562 L 1086.289062 762.683594 L 1075.015625 774.726562 L 1067.1875 774.726562 L 1082.429688 758.410156 L 1068.195312 743.398438 Z M 1076.144531 743.398438 "/>
<path style=" stroke:none;fill-rule:nonzero;fill:rgb(10.980392%,30.19608%,14.509805%);fill-opacity:1;" d="M 1150.054688 743.398438 L 1150.054688 749.449219 L 1134.511719 749.449219 C 1129.058594 749.449219 1126.6875 752.300781 1126.6875 759.0625 C 1126.6875 765.828125 1129.058594 768.617188 1134.511719 768.617188 L 1150.054688 768.617188 L 1150.054688 774.726562 L 1133.921875 774.726562 C 1125.558594 774.726562 1120.339844 769.625 1120.339844 759.0625 C 1120.339844 748.5 1125.558594 743.398438 1133.921875 743.398438 Z M 1150.054688 743.398438 "/>
<path style=" stroke:none;fill-rule:nonzero;fill:rgb(10.980392%,30.19608%,14.509805%);fill-opacity:1;" d="M 1175.5625 757.105469 L 1190.273438 757.105469 C 1193.652344 757.105469 1194.898438 755.683594 1194.898438 753.367188 C 1194.898438 750.996094 1193.53125 749.449219 1190.449219 749.449219 L 1180.367188 749.449219 C 1176.925781 749.449219 1175.5625 751.347656 1175.5625 753.78125 Z M 1190.507812 743.398438 C 1197.921875 743.398438 1201.066406 746.960938 1201.066406 753.007812 C 1201.066406 758.765625 1198.160156 762.03125 1190.449219 762.03125 L 1175.5625 762.03125 L 1175.5625 764.285156 C 1175.5625 766.773438 1176.925781 768.617188 1180.367188 768.617188 L 1199.523438 768.617188 L 1199.523438 774.726562 L 1180.367188 774.726562 C 1172.535156 774.726562 1169.453125 770.335938 1169.453125 764.402344 L 1169.453125 753.722656 C 1169.453125 747.789062 1172.535156 743.398438 1180.367188 743.398438 Z M 1190.507812 743.398438 "/>
<path style=" stroke:none;fill-rule:nonzero;fill:rgb(10.980392%,30.19608%,14.509805%);fill-opacity:1;" d="M 1227.640625 774.726562 L 1221.355469 774.726562 L 1221.355469 729.816406 L 1227.640625 729.816406 Z M 1227.640625 774.726562 "/>
<path style="fill:none;stroke-width:2;stroke-linecap:butt;stroke-linejoin:miter;stroke:rgb(100%,100%,100%);stroke-opacity:1;stroke-miterlimit:10;" d="M 0.000831492 -0.000671218 L 459.135051 -0.000671218 " transform="matrix(1.501365,0,0,-1.501929,604.037814,707.627898)"/>
<path style=" stroke:none;fill-rule:nonzero;fill:rgb(30.588236%,74.117649%,21.960784%);fill-opacity:1;" d="M 612.429688 450.21875 L 573.257812 450.21875 L 536.523438 651.796875 L 569.289062 799.292969 L 584.03125 822.785156 L 606.421875 823.332031 L 612.429688 835.894531 C 612.429688 835.894531 581.59375 719.324219 580.355469 716.699219 C 579.117188 714.074219 584.03125 563.84375 584.03125 563.84375 Z M 612.429688 450.21875 "/>
<path style=" stroke:none;fill-rule:nonzero;fill:rgb(30.588236%,74.117649%,21.960784%);fill-opacity:1;" d="M 578.496094 803.429688 L 688.980469 803.429688 C 688.980469 803.429688 870.617188 830.859375 874.042969 833.144531 C 877.472656 835.429688 1012.269531 859.425781 1012.269531 859.425781 L 1125.367188 843.429688 L 1239.601562 831.429688 L 1304.71875 831.429688 C 1304.71875 831.429688 1233.890625 949.710938 1165.347656 979.421875 C 1096.808594 1009.132812 1039.828125 1043.207031 941.609375 1039.988281 C 843.386719 1036.773438 763.234375 1004.332031 763.234375 1004.332031 C 763.234375 1004.332031 618.445312 904.585938 610.15625 862.855469 C 601.871094 821.128906 578.496094 803.429688 578.496094 803.429688 "/>
<path style=" stroke:none;fill-rule:nonzero;fill:rgb(100%,100%,100%);fill-opacity:1;" d="M 611.460938 837.6875 C 611.226562 835.996094 611.417969 834.433594 612.027344 833.007812 C 612.636719 831.582031 613.660156 830.429688 615.097656 829.542969 L 617.777344 833.902344 C 616.757812 834.65625 616.128906 835.625 615.894531 836.804688 C 615.660156 837.980469 615.960938 839.246094 616.796875 840.605469 C 617.660156 842.007812 618.675781 842.894531 619.839844 843.261719 C 621.003906 843.625 622.128906 843.476562 623.207031 842.8125 C 624.042969 842.296875 624.578125 841.632812 624.804688 840.820312 C 625.03125 840.007812 625.066406 839.148438 624.90625 838.246094 C 624.75 837.34375 624.441406 836.148438 623.988281 834.652344 C 623.421875 832.773438 623.050781 831.1875 622.871094 829.902344 C 622.695312 828.621094 622.851562 827.328125 623.347656 826.042969 C 623.84375 824.753906 624.871094 823.628906 626.429688 822.671875 C 627.863281 821.789062 629.34375 821.371094 630.859375 821.421875 C 632.375 821.472656 633.816406 821.964844 635.183594 822.894531 C 636.546875 823.824219 637.75 825.136719 638.789062 826.828125 C 640.269531 829.230469 640.875 831.574219 640.609375 833.851562 C 640.339844 836.132812 639.203125 838.003906 637.199219 839.46875 L 634.433594 834.96875 C 635.300781 834.339844 635.816406 833.429688 635.980469 832.25 C 636.144531 831.0625 635.828125 829.832031 635.039062 828.542969 C 634.324219 827.378906 633.4375 826.609375 632.386719 826.242188 C 631.332031 825.871094 630.242188 826.03125 629.117188 826.722656 C 628.351562 827.199219 627.863281 827.816406 627.660156 828.582031 C 627.453125 829.351562 627.425781 830.179688 627.578125 831.070312 C 627.726562 831.960938 628.015625 833.128906 628.441406 834.570312 C 628.996094 836.496094 629.363281 838.113281 629.546875 839.429688 C 629.726562 840.742188 629.570312 842.054688 629.066406 843.363281 C 628.566406 844.671875 627.527344 845.8125 625.945312 846.789062 C 624.675781 847.566406 623.269531 847.964844 621.726562 847.980469 C 620.183594 847.996094 618.671875 847.5625 617.191406 846.683594 C 615.710938 845.804688 614.429688 844.488281 613.347656 842.722656 C 612.320312 841.0625 611.691406 839.382812 611.460938 837.6875 "/>
<path style=" stroke:none;fill-rule:nonzero;fill:rgb(100%,100%,100%);fill-opacity:1;" d="M 650.9375 868.671875 C 651.476562 867.445312 651.667969 866.21875 651.503906 864.996094 C 651.34375 863.769531 650.894531 862.667969 650.15625 861.683594 C 649.433594 860.722656 648.5 860 647.363281 859.507812 C 646.21875 859.023438 644.980469 858.871094 643.644531 859.054688 C 642.304688 859.238281 640.992188 859.816406 639.710938 860.777344 C 638.429688 861.738281 637.507812 862.839844 636.945312 864.085938 C 636.382812 865.328125 636.179688 866.566406 636.328125 867.796875 C 636.480469 869.027344 636.917969 870.128906 637.636719 871.085938 C 638.375 872.070312 639.320312 872.800781 640.472656 873.28125 C 641.625 873.761719 642.878906 873.898438 644.242188 873.703125 C 645.601562 873.5 646.925781 872.917969 648.207031 871.953125 C 649.488281 870.992188 650.398438 869.894531 650.9375 868.671875 M 650.40625 856.882812 C 651.828125 857.5625 653.066406 858.605469 654.125 860.011719 C 655.332031 861.625 656.035156 863.390625 656.234375 865.324219 C 656.433594 867.25 656.097656 869.136719 655.230469 870.976562 C 654.359375 872.820312 652.992188 874.441406 651.125 875.839844 C 649.257812 877.246094 647.304688 878.117188 645.257812 878.464844 C 643.214844 878.8125 641.285156 878.628906 639.464844 877.917969 C 637.644531 877.203125 636.132812 876.042969 634.925781 874.433594 C 633.867188 873.027344 633.21875 871.558594 632.96875 870.035156 C 632.71875 868.507812 632.765625 867.078125 633.097656 865.746094 L 621.558594 874.410156 L 618.691406 870.585938 L 646.121094 849.984375 L 648.992188 853.808594 L 646.257812 855.859375 C 647.597656 855.863281 648.980469 856.207031 650.40625 856.882812 "/>
<path style=" stroke:none;fill-rule:nonzero;fill:rgb(100%,100%,100%);fill-opacity:1;" d="M 672.175781 896.816406 C 673.464844 895.601562 674.09375 894.183594 674.0625 892.554688 C 674.023438 890.921875 673.398438 889.4375 672.175781 888.089844 C 671.070312 886.871094 669.730469 886.183594 668.160156 886.023438 C 666.59375 885.863281 665.066406 886.308594 663.582031 887.351562 Z M 672.539062 902.996094 L 660.679688 889.933594 C 659.398438 891.28125 658.757812 892.792969 658.75 894.460938 C 658.742188 896.128906 659.339844 897.625 660.542969 898.945312 C 662.269531 900.851562 664.292969 901.46875 666.609375 900.792969 L 670.078125 904.609375 C 668.023438 905.535156 665.878906 905.773438 663.636719 905.335938 C 661.394531 904.898438 659.367188 903.675781 657.542969 901.667969 C 656.0625 900.035156 655.101562 898.234375 654.667969 896.273438 C 654.230469 894.308594 654.351562 892.347656 655.03125 890.394531 C 655.707031 888.441406 656.929688 886.65625 658.699219 885.050781 C 660.46875 883.441406 662.351562 882.386719 664.339844 881.878906 C 666.332031 881.371094 668.277344 881.433594 670.179688 882.066406 C 672.082031 882.695312 673.796875 883.847656 675.316406 885.523438 C 676.78125 887.136719 677.730469 888.898438 678.171875 890.800781 C 678.605469 892.707031 678.507812 894.59375 677.863281 896.460938 C 677.222656 898.324219 676.066406 900.015625 674.402344 901.53125 C 673.757812 902.117188 673.136719 902.605469 672.539062 902.996094 "/>
<path style=" stroke:none;fill-rule:nonzero;fill:rgb(100%,100%,100%);fill-opacity:1;" d="M 687.671875 906.617188 C 689.609375 905.9375 691.539062 905.8125 693.457031 906.242188 C 695.378906 906.675781 697.148438 907.636719 698.773438 909.132812 C 700.828125 911.027344 702.074219 913.085938 702.511719 915.308594 C 702.953125 917.535156 702.570312 919.773438 701.363281 922.027344 L 697.574219 918.535156 C 698.046875 917.402344 698.167969 916.285156 697.929688 915.1875 C 697.6875 914.082031 697.054688 913.0625 696.027344 912.113281 C 694.589844 910.785156 692.972656 910.242188 691.175781 910.480469 C 689.378906 910.71875 687.632812 911.761719 685.9375 913.601562 C 684.238281 915.441406 683.339844 917.273438 683.238281 919.09375 C 683.140625 920.914062 683.808594 922.484375 685.246094 923.8125 C 687.28125 925.6875 689.453125 926.03125 691.769531 924.835938 L 695.558594 928.332031 C 693.464844 929.613281 691.269531 930.140625 688.96875 929.914062 C 686.667969 929.691406 684.511719 928.648438 682.5 926.792969 C 680.878906 925.296875 679.777344 923.605469 679.203125 921.714844 C 678.625 919.824219 678.597656 917.886719 679.121094 915.898438 C 679.640625 913.90625 680.710938 912.035156 682.332031 910.277344 C 683.953125 908.519531 685.734375 907.300781 687.671875 906.617188 "/>
<path style=" stroke:none;fill-rule:nonzero;fill:rgb(100%,100%,100%);fill-opacity:1;" d="M 718.707031 921.636719 C 718.621094 920.808594 718.847656 920.054688 719.394531 919.375 C 719.9375 918.695312 720.625 918.304688 721.453125 918.210938 C 722.277344 918.117188 723.03125 918.339844 723.707031 918.882812 C 724.363281 919.40625 724.734375 920.082031 724.820312 920.914062 C 724.910156 921.742188 724.679688 922.496094 724.136719 923.171875 C 723.589844 923.855469 722.90625 924.242188 722.078125 924.335938 C 721.25 924.433594 720.511719 924.21875 719.855469 923.691406 C 719.179688 923.152344 718.796875 922.464844 718.707031 921.636719 M 719.761719 927.566406 L 705.222656 945.714844 L 701.496094 942.726562 L 716.03125 924.578125 Z M 719.761719 927.566406 "/>
<path style=" stroke:none;fill-rule:nonzero;fill:rgb(100%,100%,100%);fill-opacity:1;" d="M 740.109375 951.570312 C 740.234375 950.226562 740.039062 948.996094 739.511719 947.886719 C 738.984375 946.773438 738.21875 945.871094 737.207031 945.171875 C 736.191406 944.476562 735.078125 944.078125 733.859375 943.976562 C 732.640625 943.875 731.429688 944.117188 730.230469 944.710938 C 729.027344 945.300781 727.972656 946.257812 727.066406 947.578125 C 726.160156 948.902344 725.632812 950.246094 725.488281 951.617188 C 725.34375 952.984375 725.535156 954.234375 726.066406 955.363281 C 726.59375 956.496094 727.355469 957.402344 728.34375 958.082031 C 729.355469 958.777344 730.476562 959.171875 731.703125 959.265625 C 732.925781 959.355469 734.148438 959.09375 735.367188 958.480469 C 736.585938 957.859375 737.648438 956.894531 738.554688 955.574219 C 739.460938 954.25 739.980469 952.917969 740.109375 951.570312 M 727.726562 940.507812 C 729.542969 939.566406 731.414062 939.15625 733.351562 939.273438 C 735.285156 939.394531 737.082031 940.019531 738.742188 941.160156 C 740.238281 942.1875 741.34375 943.382812 742.050781 944.742188 C 742.761719 946.097656 743.148438 947.449219 743.210938 948.785156 L 745.125 946.003906 L 749.097656 948.734375 L 735.933594 967.90625 L 731.960938 965.175781 L 733.921875 962.324219 C 732.632812 962.769531 731.203125 962.898438 729.640625 962.710938 C 728.074219 962.523438 726.554688 961.925781 725.082031 960.910156 C 723.445312 959.789062 722.238281 958.335938 721.460938 956.554688 C 720.683594 954.777344 720.421875 952.855469 720.667969 950.789062 C 720.917969 948.722656 721.703125 946.726562 723.023438 944.800781 C 724.347656 942.878906 725.914062 941.445312 727.726562 940.507812 "/>
<path style=" stroke:none;fill-rule:nonzero;fill:rgb(100%,100%,100%);fill-opacity:1;" d="M 769.269531 951.496094 L 753.542969 978.480469 L 749.414062 976.074219 L 765.140625 949.085938 Z M 769.269531 951.496094 "/>
<path style=" stroke:none;fill-rule:nonzero;fill:rgb(100%,100%,100%);fill-opacity:1;" d="M 779.714844 961.800781 C 779.464844 961.003906 779.539062 960.222656 779.9375 959.449219 C 780.339844 958.671875 780.933594 958.15625 781.726562 957.898438 C 782.519531 957.644531 783.300781 957.714844 784.070312 958.113281 C 784.816406 958.496094 785.3125 959.085938 785.5625 959.882812 C 785.8125 960.675781 785.738281 961.457031 785.335938 962.234375 C 784.9375 963.011719 784.339844 963.523438 783.550781 963.78125 C 782.757812 964.039062 781.988281 963.972656 781.246094 963.585938 C 780.472656 963.191406 779.964844 962.59375 779.714844 961.800781 M 781.914062 967.402344 L 771.25 988.066406 L 767.003906 985.875 L 777.671875 965.210938 Z M 781.914062 967.402344 "/>
<path style=" stroke:none;fill-rule:nonzero;fill:rgb(100%,100%,100%);fill-opacity:1;" d="M 788.714844 995.769531 C 787.660156 994.589844 786.976562 993.308594 786.660156 991.929688 C 786.347656 990.546875 786.445312 989.207031 786.953125 987.894531 L 791.488281 989.863281 C 791.171875 990.800781 791.273438 991.742188 791.792969 992.691406 C 792.308594 993.636719 793.15625 994.363281 794.335938 994.878906 C 795.5625 995.414062 796.621094 995.589844 797.507812 995.40625 C 798.394531 995.226562 799 994.761719 799.328125 994.015625 C 799.671875 993.214844 799.554688 992.457031 798.96875 991.734375 C 798.378906 991.023438 797.367188 990.074219 795.929688 988.898438 C 794.53125 987.769531 793.421875 986.78125 792.605469 985.933594 C 791.785156 985.085938 791.195312 984.078125 790.835938 982.910156 C 790.476562 981.738281 790.597656 980.457031 791.203125 979.0625 C 791.699219 977.929688 792.480469 977.03125 793.558594 976.382812 C 794.632812 975.730469 795.910156 975.402344 797.386719 975.398438 C 798.867188 975.398438 800.414062 975.75 802.027344 976.453125 C 804.433594 977.5 806.109375 978.957031 807.046875 980.824219 C 807.988281 982.695312 808.050781 984.703125 807.230469 986.867188 L 802.851562 984.960938 C 803.191406 983.972656 803.136719 983.042969 802.691406 982.175781 C 802.246094 981.304688 801.4375 980.613281 800.257812 980.101562 C 799.105469 979.601562 798.125 979.4375 797.320312 979.605469 C 796.515625 979.777344 795.953125 980.222656 795.640625 980.945312 C 795.394531 981.515625 795.390625 982.082031 795.632812 982.648438 C 795.875 983.214844 796.242188 983.734375 796.734375 984.210938 C 797.230469 984.683594 797.980469 985.339844 798.984375 986.175781 C 800.34375 987.261719 801.421875 988.226562 802.222656 989.082031 C 803.023438 989.9375 803.605469 990.933594 803.964844 992.070312 C 804.320312 993.210938 804.214844 994.46875 803.644531 995.847656 C 803.121094 997.058594 802.316406 998 801.234375 998.664062 C 800.152344 999.328125 798.886719 999.667969 797.433594 999.679688 C 795.980469 999.691406 794.433594 999.34375 792.796875 998.628906 C 791.128906 997.902344 789.769531 996.953125 788.714844 995.769531 "/>
<path style=" stroke:none;fill-rule:nonzero;fill:rgb(100%,100%,100%);fill-opacity:1;" d="M 826.375 990.601562 L 822.113281 1002.75 C 821.824219 1003.574219 821.808594 1004.230469 822.066406 1004.722656 C 822.320312 1005.214844 822.910156 1005.621094 823.835938 1005.949219 L 826.601562 1006.917969 L 825.273438 1010.703125 L 821.714844 1009.453125 C 819.6875 1008.742188 818.300781 1007.714844 817.554688 1006.382812 C 816.808594 1005.046875 816.8125 1003.300781 817.566406 1001.148438 L 821.828125 989.003906 L 819.257812 988.101562 L 820.558594 984.398438 L 823.128906 985.300781 L 825.042969 979.84375 L 829.589844 981.4375 L 827.675781 986.894531 L 832.972656 988.753906 L 831.671875 992.460938 Z M 826.375 990.601562 "/>
<path style=" stroke:none;fill-rule:nonzero;fill:rgb(100%,100%,100%);fill-opacity:1;" d="M 842.023438 1015.183594 C 840.808594 1014.167969 839.945312 1013.003906 839.433594 1011.683594 C 838.921875 1010.363281 838.824219 1009.019531 839.136719 1007.644531 L 843.910156 1008.9375 C 843.734375 1009.910156 843.96875 1010.828125 844.617188 1011.691406 C 845.269531 1012.546875 846.214844 1013.148438 847.453125 1013.484375 C 848.746094 1013.835938 849.820312 1013.855469 850.667969 1013.542969 C 851.523438 1013.238281 852.050781 1012.6875 852.265625 1011.898438 C 852.492188 1011.058594 852.265625 1010.328125 851.582031 1009.703125 C 850.894531 1009.082031 849.753906 1008.289062 848.164062 1007.335938 C 846.617188 1006.421875 845.375 1005.601562 844.441406 1004.886719 C 843.507812 1004.164062 842.777344 1003.253906 842.25 1002.148438 C 841.726562 1001.046875 841.660156 999.757812 842.058594 998.292969 C 842.382812 997.097656 843.027344 996.097656 843.996094 995.296875 C 844.964844 994.496094 846.183594 993.988281 847.644531 993.769531 C 849.105469 993.554688 850.6875 993.675781 852.386719 994.132812 C 854.921875 994.820312 856.789062 996.019531 857.988281 997.730469 C 859.191406 999.441406 859.542969 1001.425781 859.046875 1003.679688 L 854.4375 1002.433594 C 854.628906 1001.40625 854.441406 1000.496094 853.875 999.695312 C 853.308594 998.90625 852.40625 998.339844 851.164062 998.003906 C 849.953125 997.675781 848.960938 997.652344 848.1875 997.941406 C 847.417969 998.226562 846.925781 998.753906 846.722656 999.507812 C 846.558594 1000.109375 846.636719 1000.671875 846.960938 1001.195312 C 847.28125 1001.71875 847.71875 1002.179688 848.28125 1002.574219 C 848.835938 1002.976562 849.675781 1003.515625 850.792969 1004.199219 C 852.292969 1005.070312 853.5 1005.871094 854.417969 1006.601562 C 855.335938 1007.332031 856.050781 1008.234375 856.570312 1009.308594 C 857.089844 1010.382812 857.167969 1011.640625 856.808594 1013.085938 C 856.460938 1014.363281 855.804688 1015.40625 854.828125 1016.222656 C 853.855469 1017.039062 852.652344 1017.558594 851.21875 1017.78125 C 849.78125 1018.007812 848.203125 1017.882812 846.476562 1017.417969 C 844.722656 1016.941406 843.238281 1016.195312 842.023438 1015.183594 "/>
<path style=" stroke:none;fill-rule:nonzero;fill:rgb(100%,100%,100%);fill-opacity:1;" d="M 893.144531 999.089844 C 892.648438 998.421875 892.464844 997.65625 892.589844 996.792969 C 892.71875 995.929688 893.113281 995.246094 893.78125 994.746094 C 894.445312 994.246094 895.210938 994.0625 896.066406 994.1875 C 896.894531 994.304688 897.554688 994.703125 898.050781 995.371094 C 898.546875 996.046875 898.730469 996.808594 898.601562 997.675781 C 898.476562 998.539062 898.082031 999.21875 897.414062 999.71875 C 896.746094 1000.21875 896 1000.40625 895.171875 1000.285156 C 894.3125 1000.160156 893.640625 999.761719 893.144531 999.089844 M 897.046875 1003.675781 L 893.671875 1026.683594 L 888.945312 1025.992188 L 892.320312 1002.980469 Z M 897.046875 1003.675781 "/>
<path style=" stroke:none;fill-rule:nonzero;fill:rgb(100%,100%,100%);fill-opacity:1;" d="M 927.378906 1007.441406 C 928.757812 1008.300781 929.796875 1009.507812 930.5 1011.050781 C 931.199219 1012.601562 931.476562 1014.421875 931.320312 1016.53125 L 930.332031 1030.210938 L 925.613281 1029.871094 L 926.546875 1016.902344 C 926.699219 1014.828125 926.296875 1013.195312 925.347656 1012.015625 C 924.394531 1010.832031 923.03125 1010.171875 921.246094 1010.046875 C 919.464844 1009.914062 918.007812 1010.371094 916.882812 1011.402344 C 915.757812 1012.4375 915.121094 1013.988281 914.972656 1016.066406 L 914.035156 1029.035156 L 909.269531 1028.691406 L 910.945312 1005.492188 L 915.710938 1005.839844 L 915.519531 1008.488281 C 916.367188 1007.59375 917.417969 1006.921875 918.667969 1006.472656 C 919.917969 1006.03125 921.226562 1005.855469 922.589844 1005.953125 C 924.40625 1006.085938 925.996094 1006.582031 927.378906 1007.441406 "/>
<path style=" stroke:none;fill-rule:nonzero;fill:rgb(100%,100%,100%);fill-opacity:1;" d="M 987.226562 999.160156 L 989.46875 1028.414062 L 984.707031 1028.777344 L 983.726562 1015.984375 L 970.0625 1017.027344 L 971.046875 1029.824219 L 966.28125 1030.1875 L 964.042969 1000.941406 L 968.804688 1000.574219 L 969.765625 1013.117188 L 983.425781 1012.070312 L 982.464844 999.527344 Z M 987.226562 999.160156 "/>
<path style=" stroke:none;fill-rule:nonzero;fill:rgb(100%,100%,100%);fill-opacity:1;" d="M 1017.867188 1019.433594 C 1018.828125 1018.667969 1019.535156 1017.644531 1019.992188 1016.367188 C 1020.449219 1015.085938 1020.535156 1013.613281 1020.246094 1011.953125 C 1019.957031 1010.289062 1019.398438 1008.9375 1018.5625 1007.894531 C 1017.730469 1006.855469 1016.738281 1006.136719 1015.59375 1005.734375 C 1014.445312 1005.332031 1013.269531 1005.238281 1012.054688 1005.449219 C 1010.84375 1005.664062 1009.773438 1006.144531 1008.84375 1006.90625 C 1007.914062 1007.667969 1007.246094 1008.679688 1006.839844 1009.933594 C 1006.433594 1011.191406 1006.378906 1012.648438 1006.664062 1014.3125 C 1007.09375 1016.78125 1008.050781 1018.578125 1009.539062 1019.707031 C 1011.019531 1020.832031 1012.714844 1021.230469 1014.613281 1020.902344 C 1015.824219 1020.6875 1016.910156 1020.203125 1017.867188 1019.433594 M 1009.253906 1024.554688 C 1007.347656 1023.871094 1005.746094 1022.71875 1004.441406 1021.105469 C 1003.140625 1019.488281 1002.285156 1017.503906 1001.875 1015.148438 C 1001.472656 1012.816406 1001.621094 1010.664062 1002.324219 1008.683594 C 1003.03125 1006.703125 1004.183594 1005.078125 1005.773438 1003.800781 C 1007.367188 1002.523438 1009.25 1001.695312 1011.421875 1001.316406 C 1013.597656 1000.941406 1015.648438 1001.082031 1017.582031 1001.75 C 1019.507812 1002.414062 1021.140625 1003.558594 1022.472656 1005.183594 C 1023.804688 1006.808594 1024.671875 1008.785156 1025.078125 1011.113281 C 1025.480469 1013.441406 1025.316406 1015.597656 1024.585938 1017.582031 C 1023.851562 1019.566406 1022.667969 1021.207031 1021.039062 1022.503906 C 1019.40625 1023.800781 1017.503906 1024.640625 1015.328125 1025.015625 C 1013.183594 1025.390625 1011.15625 1025.234375 1009.253906 1024.554688 "/>
<path style=" stroke:none;fill-rule:nonzero;fill:rgb(100%,100%,100%);fill-opacity:1;" d="M 1066.839844 988.65625 C 1068.433594 988.976562 1069.839844 989.734375 1071.054688 990.929688 C 1072.265625 992.125 1073.171875 993.734375 1073.773438 995.757812 L 1077.667969 1008.910156 L 1073.128906 1010.257812 L 1069.433594 997.792969 C 1068.847656 995.796875 1067.894531 994.410156 1066.589844 993.640625 C 1065.285156 992.867188 1063.769531 992.738281 1062.058594 993.246094 C 1060.34375 993.753906 1059.144531 994.691406 1058.457031 996.054688 C 1057.765625 997.414062 1057.71875 999.097656 1058.308594 1001.09375 L 1062 1013.554688 L 1057.460938 1014.902344 L 1053.769531 1002.4375 C 1053.179688 1000.445312 1052.230469 999.058594 1050.917969 998.285156 C 1049.613281 997.511719 1048.101562 997.382812 1046.390625 997.886719 C 1044.675781 998.398438 1043.472656 999.335938 1042.785156 1000.699219 C 1042.097656 1002.0625 1042.050781 1003.742188 1042.644531 1005.738281 L 1046.335938 1018.203125 L 1041.753906 1019.5625 L 1035.148438 997.261719 L 1039.726562 995.902344 L 1040.480469 998.453125 C 1040.960938 997.316406 1041.699219 996.316406 1042.699219 995.460938 C 1043.699219 994.609375 1044.855469 993.988281 1046.167969 993.597656 C 1047.933594 993.074219 1049.628906 992.984375 1051.242188 993.324219 C 1052.859375 993.667969 1054.253906 994.445312 1055.429688 995.648438 C 1055.699219 994.101562 1056.421875 992.722656 1057.609375 991.503906 C 1058.792969 990.289062 1060.203125 989.4375 1061.835938 988.953125 C 1063.574219 988.4375 1065.246094 988.335938 1066.839844 988.65625 "/>
<path style=" stroke:none;fill-rule:nonzero;fill:rgb(100%,100%,100%);fill-opacity:1;" d="M 1103.421875 993.257812 C 1104.175781 992.289062 1104.628906 991.132812 1104.78125 989.78125 C 1104.933594 988.429688 1104.671875 986.980469 1104.007812 985.429688 C 1103.34375 983.878906 1102.484375 982.691406 1101.433594 981.871094 C 1100.382812 981.050781 1099.253906 980.582031 1098.046875 980.457031 C 1096.835938 980.332031 1095.667969 980.511719 1094.539062 980.996094 C 1093.410156 981.480469 1092.480469 982.199219 1091.75 983.15625 C 1091.019531 984.113281 1090.601562 985.25 1090.5 986.5625 C 1090.390625 987.882812 1090.675781 989.3125 1091.339844 990.863281 C 1092.328125 993.164062 1093.671875 994.691406 1095.378906 995.449219 C 1097.085938 996.199219 1098.824219 996.195312 1100.59375 995.4375 C 1101.722656 994.953125 1102.667969 994.226562 1103.421875 993.257812 M 1096.222656 1000.230469 C 1094.207031 1000.003906 1092.382812 999.253906 1090.746094 997.984375 C 1089.105469 996.714844 1087.816406 994.980469 1086.875 992.78125 C 1085.941406 990.609375 1085.589844 988.476562 1085.816406 986.390625 C 1086.046875 984.300781 1086.789062 982.453125 1088.046875 980.839844 C 1089.300781 979.234375 1090.941406 977.996094 1092.96875 977.125 C 1094.996094 976.253906 1097.027344 975.917969 1099.058594 976.117188 C 1101.089844 976.316406 1102.941406 977.054688 1104.609375 978.328125 C 1106.28125 979.601562 1107.582031 981.324219 1108.515625 983.496094 C 1109.445312 985.667969 1109.78125 987.804688 1109.527344 989.902344 C 1109.273438 992.003906 1108.5 993.871094 1107.214844 995.511719 C 1105.925781 997.152344 1104.269531 998.40625 1102.242188 999.277344 C 1100.238281 1000.136719 1098.230469 1000.453125 1096.222656 1000.230469 "/>
<path style=" stroke:none;fill-rule:nonzero;fill:rgb(100%,100%,100%);fill-opacity:1;" d="M 1133.839844 967.964844 C 1132.96875 966.421875 1131.738281 965.472656 1130.144531 965.117188 C 1128.554688 964.769531 1126.960938 965.027344 1125.367188 965.894531 C 1123.921875 966.679688 1122.933594 967.820312 1122.40625 969.308594 C 1121.878906 970.796875 1121.949219 972.386719 1122.613281 974.074219 Z M 1139.925781 969.070312 L 1124.429688 977.503906 C 1125.441406 979.070312 1126.753906 980.054688 1128.371094 980.453125 C 1129.992188 980.855469 1131.582031 980.628906 1133.152344 979.773438 C 1135.410156 978.542969 1136.488281 976.722656 1136.386719 974.316406 L 1140.914062 971.851562 C 1141.320312 974.0625 1141.050781 976.207031 1140.09375 978.277344 C 1139.136719 980.351562 1137.46875 982.035156 1135.089844 983.332031 C 1133.152344 984.386719 1131.175781 984.894531 1129.167969 984.851562 C 1127.15625 984.808594 1125.28125 984.226562 1123.542969 983.105469 C 1121.804688 981.988281 1120.363281 980.375 1119.222656 978.273438 C 1118.078125 976.175781 1117.496094 974.09375 1117.476562 972.039062 C 1117.457031 969.984375 1117.976562 968.109375 1119.042969 966.410156 C 1120.101562 964.707031 1121.628906 963.316406 1123.617188 962.234375 C 1125.53125 961.195312 1127.464844 960.6875 1129.417969 960.710938 C 1131.367188 960.734375 1133.179688 961.28125 1134.839844 962.351562 C 1136.496094 963.417969 1137.871094 964.9375 1138.945312 966.914062 C 1139.363281 967.679688 1139.6875 968.398438 1139.925781 969.070312 "/>
<path style=" stroke:none;fill-rule:nonzero;fill:rgb(100%,100%,100%);fill-opacity:1;" d="M 1165.71875 958.671875 C 1166.285156 957.578125 1166.515625 956.359375 1166.414062 955.003906 C 1166.3125 953.648438 1165.792969 952.269531 1164.851562 950.867188 C 1163.910156 949.464844 1162.847656 948.460938 1161.667969 947.847656 C 1160.480469 947.234375 1159.285156 946.980469 1158.074219 947.082031 C 1156.863281 947.183594 1155.746094 947.574219 1154.726562 948.257812 C 1153.707031 948.945312 1152.925781 949.824219 1152.382812 950.898438 C 1151.84375 951.972656 1151.644531 953.167969 1151.785156 954.480469 C 1151.925781 955.792969 1152.464844 957.148438 1153.402344 958.550781 C 1154.800781 960.632812 1156.402344 961.882812 1158.21875 962.308594 C 1160.035156 962.734375 1161.742188 962.40625 1163.34375 961.332031 C 1164.363281 960.648438 1165.15625 959.761719 1165.71875 958.671875 M 1159.929688 966.851562 C 1157.910156 967.003906 1155.980469 966.605469 1154.132812 965.660156 C 1152.289062 964.710938 1150.699219 963.246094 1149.367188 961.257812 C 1148.050781 959.296875 1147.3125 957.265625 1147.152344 955.171875 C 1146.992188 953.078125 1147.378906 951.125 1148.316406 949.308594 C 1149.25 947.496094 1150.636719 945.972656 1152.46875 944.742188 C 1154.304688 943.515625 1156.234375 942.808594 1158.269531 942.628906 C 1160.300781 942.453125 1162.253906 942.832031 1164.132812 943.777344 C 1166.007812 944.71875 1167.605469 946.171875 1168.921875 948.136719 C 1170.238281 950.101562 1170.964844 952.132812 1171.101562 954.246094 C 1171.242188 956.355469 1170.828125 958.335938 1169.863281 960.183594 C 1168.902344 962.035156 1167.503906 963.574219 1165.671875 964.804688 C 1163.863281 966.019531 1161.949219 966.703125 1159.929688 966.851562 "/>
<path style=" stroke:none;fill-rule:nonzero;fill:rgb(100%,100%,100%);fill-opacity:1;" d="M 1190.855469 925.464844 C 1189.609375 924.976562 1188.378906 924.839844 1187.160156 925.054688 C 1185.945312 925.265625 1184.863281 925.765625 1183.914062 926.542969 C 1182.984375 927.304688 1182.300781 928.265625 1181.859375 929.425781 C 1181.421875 930.589844 1181.320312 931.832031 1181.5625 933.164062 C 1181.804688 934.496094 1182.433594 935.777344 1183.449219 937.019531 C 1184.464844 938.261719 1185.605469 939.136719 1186.871094 939.640625 C 1188.132812 940.152344 1189.378906 940.308594 1190.605469 940.101562 C 1191.828125 939.898438 1192.90625 939.417969 1193.832031 938.65625 C 1194.785156 937.875 1195.476562 936.902344 1195.90625 935.730469 C 1196.335938 934.558594 1196.421875 933.296875 1196.164062 931.941406 C 1195.90625 930.59375 1195.265625 929.296875 1194.25 928.054688 C 1193.238281 926.8125 1192.105469 925.949219 1190.855469 925.464844 M 1179.109375 926.496094 C 1179.726562 925.046875 1180.714844 923.761719 1182.074219 922.644531 C 1183.628906 921.367188 1185.371094 920.59375 1187.285156 920.308594 C 1189.203125 920.03125 1191.101562 920.289062 1192.976562 921.078125 C 1194.855469 921.867188 1196.53125 923.167969 1198.011719 924.972656 C 1199.492188 926.777344 1200.449219 928.695312 1200.882812 930.726562 C 1201.3125 932.753906 1201.210938 934.691406 1200.578125 936.535156 C 1199.941406 938.386719 1198.847656 939.949219 1197.292969 941.222656 C 1195.929688 942.339844 1194.496094 943.054688 1192.980469 943.367188 C 1191.464844 943.679688 1190.035156 943.699219 1188.691406 943.417969 L 1197.832031 954.585938 L 1194.140625 957.613281 L 1172.398438 931.066406 L 1176.09375 928.039062 L 1178.261719 930.6875 C 1178.207031 929.347656 1178.492188 927.949219 1179.109375 926.496094 "/>
<path style=" stroke:none;fill-rule:nonzero;fill:rgb(100%,100%,100%);fill-opacity:1;" d="M 1216.636719 901.4375 C 1215.339844 901.066406 1214.097656 901.03125 1212.90625 901.34375 C 1211.71875 901.65625 1210.6875 902.246094 1209.816406 903.113281 C 1208.945312 903.980469 1208.347656 905.003906 1208.023438 906.183594 C 1207.699219 907.359375 1207.71875 908.597656 1208.074219 909.886719 C 1208.433594 911.175781 1209.179688 912.390625 1210.3125 913.527344 C 1211.441406 914.664062 1212.664062 915.425781 1213.988281 915.820312 C 1215.304688 916.214844 1216.570312 916.257812 1217.777344 915.945312 C 1218.984375 915.632812 1220.015625 915.050781 1220.867188 914.207031 C 1221.738281 913.339844 1222.328125 912.3125 1222.644531 911.121094 C 1222.960938 909.933594 1222.929688 908.683594 1222.550781 907.375 C 1222.171875 906.066406 1221.417969 904.839844 1220.285156 903.703125 C 1219.152344 902.566406 1217.9375 901.8125 1216.636719 901.4375 M 1203.484375 911.570312 C 1202.898438 909.613281 1202.839844 907.699219 1203.3125 905.816406 C 1203.785156 903.933594 1204.730469 902.28125 1206.15625 900.863281 C 1207.445312 899.582031 1208.820312 898.71875 1210.285156 898.269531 C 1211.75 897.820312 1213.148438 897.691406 1214.476562 897.875 L 1212.09375 895.480469 L 1215.507812 892.082031 L 1231.917969 908.554688 L 1228.503906 911.957031 L 1226.0625 909.507812 C 1226.261719 910.855469 1226.125 912.28125 1225.652344 913.789062 C 1225.179688 915.289062 1224.308594 916.675781 1223.042969 917.933594 C 1221.636719 919.335938 1219.988281 920.253906 1218.097656 920.6875 C 1216.207031 921.125 1214.269531 921.03125 1212.285156 920.40625 C 1210.300781 919.78125 1208.484375 918.640625 1206.839844 916.988281 C 1205.191406 915.335938 1204.074219 913.527344 1203.484375 911.570312 "/>
<path style=" stroke:none;fill-rule:nonzero;fill:rgb(100%,100%,100%);fill-opacity:1;" d="M 1231.457031 879.925781 L 1241.238281 888.292969 C 1241.898438 888.859375 1242.507812 889.113281 1243.058594 889.050781 C 1243.613281 888.992188 1244.203125 888.589844 1244.839844 887.84375 L 1246.746094 885.617188 L 1249.792969 888.222656 L 1247.339844 891.089844 C 1245.941406 892.726562 1244.488281 893.652344 1242.972656 893.859375 C 1241.460938 894.074219 1239.835938 893.4375 1238.105469 891.960938 L 1228.324219 883.589844 L 1226.554688 885.664062 L 1223.570312 883.113281 L 1225.34375 881.039062 L 1220.949219 877.28125 L 1224.082031 873.621094 L 1228.476562 877.378906 L 1232.121094 873.105469 L 1235.105469 875.660156 Z M 1231.457031 879.925781 "/>
<path style=" stroke:none;fill-rule:nonzero;fill:rgb(100%,100%,100%);fill-opacity:1;" d="M 1250.179688 850.65625 C 1251.605469 849.988281 1253.15625 849.769531 1254.832031 850 C 1256.503906 850.238281 1258.195312 850.976562 1259.902344 852.21875 L 1270.984375 860.292969 L 1268.199219 864.121094 L 1257.691406 856.46875 C 1256.007812 855.242188 1254.414062 854.71875 1252.90625 854.902344 C 1251.398438 855.085938 1250.121094 855.898438 1249.070312 857.34375 C 1248.019531 858.789062 1247.632812 860.261719 1247.914062 861.765625 C 1248.195312 863.265625 1249.175781 864.628906 1250.859375 865.855469 L 1261.363281 873.507812 L 1258.554688 877.371094 L 1233.3125 858.984375 L 1236.125 855.121094 L 1244.753906 861.40625 C 1244.433594 860.171875 1244.425781 858.894531 1244.726562 857.574219 C 1245.023438 856.257812 1245.609375 854.996094 1246.480469 853.800781 C 1247.519531 852.375 1248.75 851.328125 1250.179688 850.65625 "/>
<path style=" stroke:none;fill-rule:nonzero;fill:rgb(30.588236%,74.117649%,21.960784%);fill-opacity:1;" d="M 1321.9375 463.164062 L 1282.769531 463.164062 L 1311.164062 576.789062 C 1311.164062 576.789062 1316.082031 727.019531 1314.84375 729.644531 C 1313.605469 732.269531 1282.769531 848.839844 1282.769531 848.839844 L 1288.773438 836.277344 L 1311.164062 835.730469 L 1325.910156 812.238281 L 1363.492188 643.054688 Z M 1321.9375 463.164062 "/>
<path style=" stroke:none;fill-rule:nonzero;fill:rgb(100%,100%,100%);fill-opacity:1;" d="M 1270.414062 817.238281 L 1292.449219 846.96875 L 1289.90625 851.210938 L 1282.621094 841.367188 L 1258.328125 837.410156 L 1261.066406 832.847656 L 1279.605469 836.382812 L 1267.871094 821.484375 Z M 1270.414062 817.238281 "/>
</g>
</svg>
